<mxfile host="65bd71144e">
    <diagram id="L-0X28Qsh-a1AmyrWJYh" name="Diagrama Conceptual Centro MÃ©dico">
        <mxGraphModel dx="1679" dy="1091" grid="1" gridSize="10" guides="1" tooltips="1" connect="1" arrows="1" fold="1" page="1" pageScale="1" pageWidth="2339" pageHeight="3300" math="0" shadow="0">
            <root>
                <mxCell id="0"/>
                <mxCell id="1" parent="0"/>
                <mxCell id="28" value="&lt;span&gt;&lt;font style=&quot;color: light-dark(rgb(0, 0, 0), rgb(255, 255, 255));&quot;&gt;Paciente_ga&lt;/font&gt;&lt;/span&gt;" style="rounded=1;whiteSpace=wrap;html=1;fillColor=#19c7;fontColor=#ffffff;strokeColor=#2D7600;" parent="1" vertex="1">
                    <mxGeometry x="300" y="700" width="120" height="60" as="geometry"/>
                </mxCell>
                <mxCell id="29" value="&lt;font style=&quot;color: light-dark(rgb(0, 0, 0), rgb(255, 255, 255));&quot;&gt;ID_Paciente&lt;/font&gt;" style="ellipse;whiteSpace=wrap;html=1;noLabel=0;portConstraintRotation=0;allowArrows=1;snapToPoint=0;dashed=1;perimeterSpacing=10;fillColor=#1ba1e2;fontColor=#ffffff;strokeColor=#006EAF;fontStyle=4;flipH=0;flipV=0;" parent="1" vertex="1">
                    <mxGeometry x="370" y="620" width="100" height="60" as="geometry"/>
                </mxCell>
                <mxCell id="30" value="&lt;font style=&quot;color: light-dark(rgb(255, 255, 255), rgb(255, 255, 255));&quot;&gt;Apellido_ga&lt;/font&gt;" style="ellipse;whiteSpace=wrap;html=1;noLabel=0;portConstraintRotation=0;allowArrows=1;snapToPoint=0;dashed=1;perimeterSpacing=10;fillColor=#1ba1e2;fontColor=#ffffff;strokeColor=#006EAF;fontStyle=4;flipH=0;flipV=0;" parent="1" vertex="1">
                    <mxGeometry x="140" y="610" width="100" height="60" as="geometry"/>
                </mxCell>
                <mxCell id="31" value="&lt;font style=&quot;color: light-dark(rgb(0, 0, 0), rgb(255, 255, 255));&quot;&gt;Fecha_Nacimiento_ga&lt;/font&gt;" style="ellipse;whiteSpace=wrap;html=1;noLabel=0;portConstraintRotation=0;allowArrows=1;snapToPoint=0;dashed=1;perimeterSpacing=10;fillColor=#1ba1e2;fontColor=#ffffff;strokeColor=#006EAF;fontStyle=4;flipH=0;flipV=0;" parent="1" vertex="1">
                    <mxGeometry x="160" y="700" width="120" height="60" as="geometry"/>
                </mxCell>
                <mxCell id="32" value="&lt;font style=&quot;color: light-dark(rgb(0, 0, 0), rgb(255, 255, 255));&quot;&gt;Direccion_ga&lt;/font&gt;" style="ellipse;whiteSpace=wrap;html=1;noLabel=0;portConstraintRotation=0;allowArrows=1;snapToPoint=0;dashed=1;perimeterSpacing=10;fillColor=#1ba1e2;fontColor=#ffffff;strokeColor=#006EAF;fontStyle=4;flipH=0;flipV=0;" parent="1" vertex="1">
                    <mxGeometry x="110" y="780" width="100" height="60" as="geometry"/>
                </mxCell>
                <mxCell id="33" value="&lt;font style=&quot;color: light-dark(rgb(0, 0, 0), rgb(255, 255, 255));&quot;&gt;Nombre_ga&lt;/font&gt;" style="ellipse;whiteSpace=wrap;html=1;noLabel=0;portConstraintRotation=0;allowArrows=1;snapToPoint=0;dashed=1;perimeterSpacing=10;fillColor=#1ba1e2;fontColor=#ffffff;strokeColor=#006EAF;fontStyle=4;flipH=0;flipV=0;" parent="1" vertex="1">
                    <mxGeometry x="250" y="590" width="100" height="60" as="geometry"/>
                </mxCell>
                <mxCell id="34" value="&lt;font style=&quot;color: light-dark(rgb(0, 0, 0), rgb(255, 255, 255));&quot;&gt;Telefono_ga&lt;/font&gt;" style="ellipse;whiteSpace=wrap;html=1;noLabel=0;portConstraintRotation=0;allowArrows=1;snapToPoint=0;dashed=1;perimeterSpacing=10;fillColor=#1ba1e2;fontColor=#ffffff;strokeColor=#006EAF;fontStyle=4;flipH=0;flipV=0;" parent="1" vertex="1">
                    <mxGeometry x="230" y="800" width="100" height="60" as="geometry"/>
                </mxCell>
                <mxCell id="35" value="&lt;font style=&quot;color: light-dark(rgb(0, 0, 0), rgb(255, 255, 255));&quot;&gt;Correo_ga&lt;/font&gt;" style="ellipse;whiteSpace=wrap;html=1;noLabel=0;portConstraintRotation=0;allowArrows=1;snapToPoint=0;dashed=1;perimeterSpacing=10;fillColor=#1ba1e2;fontColor=#ffffff;strokeColor=#006EAF;fontStyle=4;flipH=0;flipV=0;" parent="1" vertex="1">
                    <mxGeometry x="360" y="810" width="100" height="60" as="geometry"/>
                </mxCell>
                <mxCell id="36" value="" style="endArrow=none;html=1;fontColor=#000000;fillColor=#1ba1e2;strokeColor=#006EAF;fontStyle=4" parent="1" source="28" target="29" edge="1">
                    <mxGeometry width="50" height="50" relative="1" as="geometry">
                        <mxPoint x="290" y="458" as="sourcePoint"/>
                        <mxPoint x="290" y="368" as="targetPoint"/>
                    </mxGeometry>
                </mxCell>
                <mxCell id="37" value="" style="endArrow=none;html=1;fontColor=#000000;fillColor=#1ba1e2;strokeColor=#006EAF;fontStyle=4" parent="1" source="28" target="33" edge="1">
                    <mxGeometry width="50" height="50" relative="1" as="geometry">
                        <mxPoint x="300" y="468" as="sourcePoint"/>
                        <mxPoint x="300" y="378" as="targetPoint"/>
                    </mxGeometry>
                </mxCell>
                <mxCell id="38" value="" style="endArrow=none;html=1;fontColor=#000000;fillColor=#1ba1e2;strokeColor=#006EAF;fontStyle=4" parent="1" source="28" target="30" edge="1">
                    <mxGeometry width="50" height="50" relative="1" as="geometry">
                        <mxPoint x="310" y="478" as="sourcePoint"/>
                        <mxPoint x="230" y="670" as="targetPoint"/>
                    </mxGeometry>
                </mxCell>
                <mxCell id="39" value="" style="endArrow=none;html=1;fontColor=#000000;fillColor=#1ba1e2;strokeColor=#006EAF;fontStyle=4" parent="1" source="28" target="31" edge="1">
                    <mxGeometry width="50" height="50" relative="1" as="geometry">
                        <mxPoint x="320" y="488" as="sourcePoint"/>
                        <mxPoint x="320" y="398" as="targetPoint"/>
                    </mxGeometry>
                </mxCell>
                <mxCell id="40" value="" style="endArrow=none;html=1;fontColor=#000000;fillColor=#1ba1e2;strokeColor=#006EAF;fontStyle=4" parent="1" source="32" target="28" edge="1">
                    <mxGeometry width="50" height="50" relative="1" as="geometry">
                        <mxPoint x="330" y="498" as="sourcePoint"/>
                        <mxPoint x="330" y="408" as="targetPoint"/>
                        <Array as="points"/>
                    </mxGeometry>
                </mxCell>
                <mxCell id="41" value="" style="endArrow=none;html=1;fontColor=#000000;fillColor=#1ba1e2;strokeColor=#006EAF;fontStyle=4" parent="1" source="34" target="28" edge="1">
                    <mxGeometry width="50" height="50" relative="1" as="geometry">
                        <mxPoint x="340" y="508" as="sourcePoint"/>
                        <mxPoint x="340" y="418" as="targetPoint"/>
                    </mxGeometry>
                </mxCell>
                <mxCell id="42" value="" style="endArrow=none;html=1;fontColor=#000000;fillColor=#1ba1e2;strokeColor=#006EAF;fontStyle=4" parent="1" source="35" target="28" edge="1">
                    <mxGeometry width="50" height="50" relative="1" as="geometry">
                        <mxPoint x="350" y="518" as="sourcePoint"/>
                        <mxPoint x="350" y="428" as="targetPoint"/>
                    </mxGeometry>
                </mxCell>
                <mxCell id="43" value="&lt;span&gt;&lt;font style=&quot;color: light-dark(rgb(0, 0, 0), rgb(255, 255, 255));&quot;&gt;Medico_ga&lt;/font&gt;&lt;/span&gt;" style="rounded=1;whiteSpace=wrap;html=1;fillColor=#19c7;fontColor=#ffffff;strokeColor=#2D7600;" parent="1" vertex="1">
                    <mxGeometry x="711" y="670" width="120" height="60" as="geometry"/>
                </mxCell>
                <mxCell id="44" value="&lt;font style=&quot;color: light-dark(rgb(0, 0, 0), rgb(255, 255, 255));&quot;&gt;ID_Medico&lt;/font&gt;" style="ellipse;whiteSpace=wrap;html=1;noLabel=0;portConstraintRotation=0;allowArrows=1;snapToPoint=0;dashed=1;perimeterSpacing=10;fillColor=#1ba1e2;fontColor=#ffffff;strokeColor=#006EAF;fontStyle=4;flipH=0;flipV=0;" parent="1" vertex="1">
                    <mxGeometry x="600" y="550" width="100" height="60" as="geometry"/>
                </mxCell>
                <mxCell id="51" value="" style="endArrow=none;html=1;fontColor=#000000;fillColor=#1ba1e2;strokeColor=#006EAF;fontStyle=4" parent="1" source="43" target="44" edge="1">
                    <mxGeometry width="50" height="50" relative="1" as="geometry">
                        <mxPoint x="900" y="348" as="sourcePoint"/>
                        <mxPoint x="900" y="258" as="targetPoint"/>
                    </mxGeometry>
                </mxCell>
                <mxCell id="58" value="&lt;font style=&quot;color: light-dark(rgb(255, 255, 255), rgb(255, 255, 255));&quot;&gt;Nombre_ga&lt;/font&gt;" style="ellipse;whiteSpace=wrap;html=1;noLabel=0;portConstraintRotation=0;allowArrows=1;snapToPoint=0;dashed=1;perimeterSpacing=10;fillColor=#1ba1e2;fontColor=#ffffff;strokeColor=#006EAF;fontStyle=4;flipH=0;flipV=0;" parent="1" vertex="1">
                    <mxGeometry x="709" y="550" width="100" height="60" as="geometry"/>
                </mxCell>
                <mxCell id="59" value="" style="endArrow=none;html=1;fontColor=#000000;fillColor=#1ba1e2;strokeColor=#006EAF;fontStyle=4" parent="1" source="43" target="58" edge="1">
                    <mxGeometry width="50" height="50" relative="1" as="geometry">
                        <mxPoint x="1120" y="600" as="sourcePoint"/>
                        <mxPoint x="1030" y="268" as="targetPoint"/>
                    </mxGeometry>
                </mxCell>
                <mxCell id="60" value="&lt;font style=&quot;color: light-dark(rgb(0, 0, 0), rgb(255, 255, 255));&quot;&gt;Apellido_ga&lt;/font&gt;" style="ellipse;whiteSpace=wrap;html=1;noLabel=0;portConstraintRotation=0;allowArrows=1;snapToPoint=0;dashed=1;perimeterSpacing=10;fillColor=#1ba1e2;fontColor=#ffffff;strokeColor=#006EAF;fontStyle=4;flipH=0;flipV=0;" parent="1" vertex="1">
                    <mxGeometry x="849" y="560" width="100" height="60" as="geometry"/>
                </mxCell>
                <mxCell id="61" value="" style="endArrow=none;html=1;fontColor=#000000;fillColor=#1ba1e2;strokeColor=#006EAF;fontStyle=4" parent="1" source="43" target="60" edge="1">
                    <mxGeometry width="50" height="50" relative="1" as="geometry">
                        <mxPoint x="1130" y="890" as="sourcePoint"/>
                        <mxPoint x="1040" y="558" as="targetPoint"/>
                    </mxGeometry>
                </mxCell>
                <mxCell id="62" value="&lt;font style=&quot;color: light-dark(rgb(0, 0, 0), rgb(255, 255, 255));&quot;&gt;Especialidad_ga&lt;/font&gt;" style="ellipse;whiteSpace=wrap;html=1;noLabel=0;portConstraintRotation=0;allowArrows=1;snapToPoint=0;dashed=1;perimeterSpacing=10;fillColor=#1ba1e2;fontColor=#ffffff;strokeColor=#006EAF;fontStyle=4;flipH=0;flipV=0;" parent="1" vertex="1">
                    <mxGeometry x="879" y="660" width="100" height="60" as="geometry"/>
                </mxCell>
                <mxCell id="63" value="" style="endArrow=none;html=1;fontColor=#000000;fillColor=#1ba1e2;strokeColor=#006EAF;fontStyle=4" parent="1" source="43" target="62" edge="1">
                    <mxGeometry width="50" height="50" relative="1" as="geometry">
                        <mxPoint x="1120" y="870" as="sourcePoint"/>
                        <mxPoint x="1030" y="538" as="targetPoint"/>
                    </mxGeometry>
                </mxCell>
                <mxCell id="64" value="&lt;font style=&quot;color: light-dark(rgb(0, 0, 0), rgb(255, 255, 255));&quot;&gt;telefono_ga&lt;/font&gt;" style="ellipse;whiteSpace=wrap;html=1;noLabel=0;portConstraintRotation=0;allowArrows=1;snapToPoint=0;dashed=1;perimeterSpacing=10;fillColor=#1ba1e2;fontColor=#ffffff;strokeColor=#006EAF;fontStyle=4;flipH=0;flipV=0;" parent="1" vertex="1">
                    <mxGeometry x="879" y="770" width="100" height="60" as="geometry"/>
                </mxCell>
                <mxCell id="65" value="" style="endArrow=none;html=1;fontColor=#000000;fillColor=#1ba1e2;strokeColor=#006EAF;fontStyle=4" parent="1" source="43" target="64" edge="1">
                    <mxGeometry width="50" height="50" relative="1" as="geometry">
                        <mxPoint x="950" y="960" as="sourcePoint"/>
                        <mxPoint x="860" y="628" as="targetPoint"/>
                    </mxGeometry>
                </mxCell>
                <mxCell id="66" value="&lt;font style=&quot;color: light-dark(rgb(0, 0, 0), rgb(255, 255, 255));&quot;&gt;correo_ga&lt;/font&gt;" style="ellipse;whiteSpace=wrap;html=1;noLabel=0;portConstraintRotation=0;allowArrows=1;snapToPoint=0;dashed=1;perimeterSpacing=10;fillColor=#1ba1e2;fontColor=#ffffff;strokeColor=#006EAF;fontStyle=4;flipH=0;flipV=0;" parent="1" vertex="1">
                    <mxGeometry x="570" y="640" width="100" height="60" as="geometry"/>
                </mxCell>
                <mxCell id="67" value="" style="endArrow=none;html=1;fontColor=#000000;fillColor=#1ba1e2;strokeColor=#006EAF;fontStyle=4" parent="1" source="43" target="66" edge="1">
                    <mxGeometry width="50" height="50" relative="1" as="geometry">
                        <mxPoint x="750" y="870" as="sourcePoint"/>
                        <mxPoint x="660" y="538" as="targetPoint"/>
                    </mxGeometry>
                </mxCell>
                <mxCell id="68" value="&lt;span&gt;&lt;font style=&quot;color: light-dark(rgb(0, 0, 0), rgb(255, 255, 255));&quot;&gt;Diagnostico_ga&lt;/font&gt;&lt;/span&gt;" style="rounded=1;whiteSpace=wrap;html=1;fillColor=#19c7;fontColor=#ffffff;strokeColor=#2D7600;" parent="1" vertex="1">
                    <mxGeometry x="900" y="940" width="120" height="60" as="geometry"/>
                </mxCell>
                <mxCell id="69" value="&lt;font style=&quot;color: light-dark(rgb(0, 0, 0), rgb(255, 255, 255));&quot;&gt;ID_Diagnostico&lt;/font&gt;" style="ellipse;whiteSpace=wrap;html=1;noLabel=0;portConstraintRotation=0;allowArrows=1;snapToPoint=0;dashed=1;perimeterSpacing=10;fillColor=#1ba1e2;fontColor=#ffffff;strokeColor=#006EAF;fontStyle=4;flipH=0;flipV=0;" parent="1" vertex="1">
                    <mxGeometry x="1100" y="860" width="100" height="60" as="geometry"/>
                </mxCell>
                <mxCell id="70" value="" style="endArrow=none;html=1;fontColor=#000000;fillColor=#1ba1e2;strokeColor=#006EAF;fontStyle=4" parent="1" source="68" target="69" edge="1">
                    <mxGeometry width="50" height="50" relative="1" as="geometry">
                        <mxPoint x="1110" y="678" as="sourcePoint"/>
                        <mxPoint x="1110" y="588" as="targetPoint"/>
                    </mxGeometry>
                </mxCell>
                <mxCell id="71" value="&lt;font style=&quot;color: light-dark(rgb(255, 255, 255), rgb(255, 255, 255));&quot;&gt;Descripcion_ga&lt;/font&gt;" style="ellipse;whiteSpace=wrap;html=1;noLabel=0;portConstraintRotation=0;allowArrows=1;snapToPoint=0;dashed=1;perimeterSpacing=10;fillColor=#1ba1e2;fontColor=#ffffff;strokeColor=#006EAF;fontStyle=4;flipH=0;flipV=0;" parent="1" vertex="1">
                    <mxGeometry x="1120" y="960" width="100" height="60" as="geometry"/>
                </mxCell>
                <mxCell id="72" value="" style="endArrow=none;html=1;fontColor=#000000;fillColor=#1ba1e2;strokeColor=#006EAF;fontStyle=4" parent="1" source="68" target="71" edge="1">
                    <mxGeometry width="50" height="50" relative="1" as="geometry">
                        <mxPoint x="1330" y="930" as="sourcePoint"/>
                        <mxPoint x="1240" y="598" as="targetPoint"/>
                    </mxGeometry>
                </mxCell>
                <mxCell id="81" value="&lt;span&gt;&lt;font style=&quot;color: light-dark(rgb(0, 0, 0), rgb(255, 255, 255));&quot;&gt;Cita_ga&lt;/font&gt;&lt;/span&gt;" style="rounded=1;whiteSpace=wrap;html=1;fillColor=#19c7;fontColor=#ffffff;strokeColor=#2D7600;" parent="1" vertex="1">
                    <mxGeometry x="580" y="920" width="120" height="60" as="geometry"/>
                </mxCell>
                <mxCell id="82" value="&lt;font style=&quot;color: light-dark(rgb(0, 0, 0), rgb(255, 255, 255));&quot;&gt;ID_Cita&lt;/font&gt;" style="ellipse;whiteSpace=wrap;html=1;noLabel=0;portConstraintRotation=0;allowArrows=1;snapToPoint=0;dashed=1;perimeterSpacing=10;fillColor=#1ba1e2;fontColor=#ffffff;strokeColor=#006EAF;fontStyle=4;flipH=0;flipV=0;" parent="1" vertex="1">
                    <mxGeometry x="590" y="750" width="100" height="60" as="geometry"/>
                </mxCell>
                <mxCell id="83" value="" style="endArrow=none;html=1;fontColor=#000000;entryX=0.5;entryY=1;entryDx=0;entryDy=0;exitX=0.5;exitY=0;exitDx=0;exitDy=0;fillColor=#1ba1e2;strokeColor=#006EAF;fontStyle=4" parent="1" source="81" target="82" edge="1">
                    <mxGeometry width="50" height="50" relative="1" as="geometry">
                        <mxPoint x="610" y="678" as="sourcePoint"/>
                        <mxPoint x="610" y="588" as="targetPoint"/>
                    </mxGeometry>
                </mxCell>
                <mxCell id="84" value="&lt;font style=&quot;color: light-dark(rgb(255, 255, 255), rgb(255, 255, 255));&quot;&gt;Fecha_ga&lt;/font&gt;" style="ellipse;whiteSpace=wrap;html=1;noLabel=0;portConstraintRotation=0;allowArrows=1;snapToPoint=0;dashed=1;perimeterSpacing=10;fillColor=#1ba1e2;fontColor=#ffffff;strokeColor=#006EAF;fontStyle=4;flipH=0;flipV=0;" parent="1" vertex="1">
                    <mxGeometry x="800" y="850" width="100" height="60" as="geometry"/>
                </mxCell>
                <mxCell id="85" value="" style="endArrow=none;html=1;fontColor=#000000;entryX=0;entryY=0.5;entryDx=0;entryDy=0;exitX=1;exitY=0;exitDx=0;exitDy=0;fillColor=#1ba1e2;strokeColor=#006EAF;fontStyle=4" parent="1" source="81" target="84" edge="1">
                    <mxGeometry width="50" height="50" relative="1" as="geometry">
                        <mxPoint x="830" y="930" as="sourcePoint"/>
                        <mxPoint x="740" y="598" as="targetPoint"/>
                    </mxGeometry>
                </mxCell>
                <mxCell id="86" value="&lt;font style=&quot;color: light-dark(rgb(0, 0, 0), rgb(255, 255, 255));&quot;&gt;Hora_ga&lt;/font&gt;" style="ellipse;whiteSpace=wrap;html=1;noLabel=0;portConstraintRotation=0;allowArrows=1;snapToPoint=0;dashed=1;perimeterSpacing=10;fillColor=#1ba1e2;fontColor=#ffffff;strokeColor=#006EAF;fontStyle=4;flipH=0;flipV=0;" parent="1" vertex="1">
                    <mxGeometry x="370" y="890" width="100" height="60" as="geometry"/>
                </mxCell>
                <mxCell id="87" value="" style="endArrow=none;html=1;fontColor=#000000;entryX=1;entryY=0.5;entryDx=0;entryDy=0;exitX=0;exitY=0.5;exitDx=0;exitDy=0;fillColor=#1ba1e2;strokeColor=#006EAF;fontStyle=4" parent="1" source="81" target="86" edge="1">
                    <mxGeometry width="50" height="50" relative="1" as="geometry">
                        <mxPoint x="451" y="1000" as="sourcePoint"/>
                        <mxPoint x="361" y="668" as="targetPoint"/>
                    </mxGeometry>
                </mxCell>
                <mxCell id="88" value="&lt;span&gt;&lt;font style=&quot;color: light-dark(rgb(0, 0, 0), rgb(255, 255, 255));&quot;&gt;Historial_medico_ga&lt;/font&gt;&lt;/span&gt;" style="rounded=1;whiteSpace=wrap;html=1;fillColor=#19c7;fontColor=#ffffff;strokeColor=#2D7600;" parent="1" vertex="1">
                    <mxGeometry x="170" y="980" width="120" height="60" as="geometry"/>
                </mxCell>
                <mxCell id="89" value="&lt;font style=&quot;color: light-dark(rgb(0, 0, 0), rgb(255, 255, 255));&quot;&gt;ID_Historial&lt;/font&gt;" style="ellipse;whiteSpace=wrap;html=1;noLabel=0;portConstraintRotation=0;allowArrows=1;snapToPoint=0;dashed=1;perimeterSpacing=10;fillColor=#1ba1e2;fontColor=#ffffff;strokeColor=#006EAF;fontStyle=4;flipH=0;flipV=0;" parent="1" vertex="1">
                    <mxGeometry x="370" y="1040" width="100" height="60" as="geometry"/>
                </mxCell>
                <mxCell id="90" value="&lt;font style=&quot;color: light-dark(rgb(255, 255, 255), rgb(255, 255, 255));&quot;&gt;Fecha_ga&lt;/font&gt;" style="ellipse;whiteSpace=wrap;html=1;noLabel=0;portConstraintRotation=0;allowArrows=1;snapToPoint=0;dashed=1;perimeterSpacing=10;fillColor=#1ba1e2;fontColor=#ffffff;strokeColor=#006EAF;fontStyle=4;flipH=0;flipV=0;" parent="1" vertex="1">
                    <mxGeometry x="230" y="1150" width="100" height="60" as="geometry"/>
                </mxCell>
                <mxCell id="93" value="&lt;font style=&quot;color: light-dark(rgb(0, 0, 0), rgb(255, 255, 255));&quot;&gt;Descripcion_ga&lt;/font&gt;" style="ellipse;whiteSpace=wrap;html=1;noLabel=0;portConstraintRotation=0;allowArrows=1;snapToPoint=0;dashed=1;perimeterSpacing=10;fillColor=#1ba1e2;fontColor=#ffffff;strokeColor=#006EAF;fontStyle=4;flipH=0;flipV=0;" parent="1" vertex="1">
                    <mxGeometry x="260" y="1070" width="100" height="60" as="geometry"/>
                </mxCell>
                <mxCell id="96" value="" style="endArrow=none;html=1;fontColor=#000000;fillColor=#1ba1e2;strokeColor=#006EAF;fontStyle=4" parent="1" source="88" target="89" edge="1">
                    <mxGeometry width="50" height="50" relative="1" as="geometry">
                        <mxPoint x="310" y="968" as="sourcePoint"/>
                        <mxPoint x="310" y="878" as="targetPoint"/>
                    </mxGeometry>
                </mxCell>
                <mxCell id="97" value="" style="endArrow=none;html=1;fontColor=#000000;fillColor=#1ba1e2;strokeColor=#006EAF;fontStyle=4" parent="1" source="88" target="93" edge="1">
                    <mxGeometry width="50" height="50" relative="1" as="geometry">
                        <mxPoint x="320" y="978" as="sourcePoint"/>
                        <mxPoint x="320" y="888" as="targetPoint"/>
                    </mxGeometry>
                </mxCell>
                <mxCell id="98" value="" style="endArrow=none;html=1;fontColor=#000000;fillColor=#1ba1e2;strokeColor=#006EAF;fontStyle=4" parent="1" source="88" target="90" edge="1">
                    <mxGeometry width="50" height="50" relative="1" as="geometry">
                        <mxPoint x="330" y="988" as="sourcePoint"/>
                        <mxPoint x="330" y="898" as="targetPoint"/>
                    </mxGeometry>
                </mxCell>
                <mxCell id="103" value="&lt;span&gt;&lt;font style=&quot;color: light-dark(rgb(0, 0, 0), rgb(255, 255, 255));&quot;&gt;Receta_ga&lt;/font&gt;&lt;/span&gt;" style="rounded=1;whiteSpace=wrap;html=1;fillColor=#19c7;fontColor=#ffffff;strokeColor=#2D7600;" parent="1" vertex="1">
                    <mxGeometry x="780" y="1130" width="120" height="60" as="geometry"/>
                </mxCell>
                <mxCell id="104" value="&lt;font style=&quot;color: light-dark(rgb(0, 0, 0), rgb(255, 255, 255));&quot;&gt;ID_Receta&lt;/font&gt;" style="ellipse;whiteSpace=wrap;html=1;noLabel=0;portConstraintRotation=0;allowArrows=1;snapToPoint=0;dashed=1;perimeterSpacing=10;fillColor=#1ba1e2;fontColor=#ffffff;strokeColor=#006EAF;fontStyle=4;flipH=0;flipV=0;" parent="1" vertex="1">
                    <mxGeometry x="779" y="1030" width="100" height="60" as="geometry"/>
                </mxCell>
                <mxCell id="105" value="" style="endArrow=none;html=1;fontColor=#000000;fillColor=#1ba1e2;strokeColor=#006EAF;fontStyle=4" parent="1" source="103" target="104" edge="1">
                    <mxGeometry width="50" height="50" relative="1" as="geometry">
                        <mxPoint x="1140" y="968" as="sourcePoint"/>
                        <mxPoint x="1140" y="878" as="targetPoint"/>
                    </mxGeometry>
                </mxCell>
                <mxCell id="106" value="&lt;font style=&quot;color: light-dark(rgb(255, 255, 255), rgb(255, 255, 255));&quot;&gt;Medicamento_ga&lt;/font&gt;" style="ellipse;whiteSpace=wrap;html=1;noLabel=0;portConstraintRotation=0;allowArrows=1;snapToPoint=0;dashed=1;perimeterSpacing=10;fillColor=#1ba1e2;fontColor=#ffffff;strokeColor=#006EAF;fontStyle=4;flipH=0;flipV=0;" parent="1" vertex="1">
                    <mxGeometry x="910" y="1050" width="100" height="60" as="geometry"/>
                </mxCell>
                <mxCell id="107" value="" style="endArrow=none;html=1;fontColor=#000000;fillColor=#1ba1e2;strokeColor=#006EAF;fontStyle=4" parent="1" source="103" target="106" edge="1">
                    <mxGeometry width="50" height="50" relative="1" as="geometry">
                        <mxPoint x="1360" y="1220" as="sourcePoint"/>
                        <mxPoint x="1270" y="888" as="targetPoint"/>
                    </mxGeometry>
                </mxCell>
                <mxCell id="108" value="&lt;font style=&quot;color: light-dark(rgb(255, 255, 255), rgb(255, 255, 255));&quot;&gt;Dosis_ga&lt;/font&gt;" style="ellipse;whiteSpace=wrap;html=1;noLabel=0;portConstraintRotation=0;allowArrows=1;snapToPoint=0;dashed=1;perimeterSpacing=10;fillColor=#1ba1e2;fontColor=#ffffff;strokeColor=#006EAF;fontStyle=4;flipH=0;flipV=0;" parent="1" vertex="1">
                    <mxGeometry x="879" y="1220" width="100" height="60" as="geometry"/>
                </mxCell>
                <mxCell id="109" value="" style="endArrow=none;html=1;fontColor=#000000;fillColor=#1ba1e2;strokeColor=#006EAF;fontStyle=4" parent="1" source="103" target="108" edge="1">
                    <mxGeometry width="50" height="50" relative="1" as="geometry">
                        <mxPoint x="1160" y="1340" as="sourcePoint"/>
                        <mxPoint x="1200" y="988" as="targetPoint"/>
                    </mxGeometry>
                </mxCell>
                <mxCell id="110" value="&lt;font style=&quot;color: light-dark(rgb(255, 255, 255), rgb(255, 255, 255));&quot;&gt;Instrucciones_ga&lt;/font&gt;" style="ellipse;whiteSpace=wrap;html=1;noLabel=0;portConstraintRotation=0;allowArrows=1;snapToPoint=0;dashed=1;perimeterSpacing=10;fillColor=#1ba1e2;fontColor=#ffffff;strokeColor=#006EAF;fontStyle=4;flipH=0;flipV=0;" parent="1" vertex="1">
                    <mxGeometry x="721" y="1220" width="100" height="60" as="geometry"/>
                </mxCell>
                <mxCell id="111" value="" style="endArrow=none;html=1;fontColor=#000000;fillColor=#1ba1e2;strokeColor=#006EAF;fontStyle=4" parent="1" source="103" target="110" edge="1">
                    <mxGeometry width="50" height="50" relative="1" as="geometry">
                        <mxPoint x="1020" y="1400" as="sourcePoint"/>
                        <mxPoint x="1060" y="1048" as="targetPoint"/>
                    </mxGeometry>
                </mxCell>
                <mxCell id="112" value="&lt;font style=&quot;color: light-dark(rgb(0, 0, 0), rgb(255, 255, 255));&quot;&gt;Realiza&lt;/font&gt;" style="rhombus;whiteSpace=wrap;html=1;fillColor=#0050ef;fontColor=#ffffff;strokeColor=#001DBC;rounded=1;arcSize=27;" parent="1" vertex="1">
                    <mxGeometry x="490" y="770" width="100" height="80" as="geometry"/>
                </mxCell>
                <mxCell id="113" value="&lt;font style=&quot;color: light-dark(rgb(0, 0, 0), rgb(255, 255, 255));&quot;&gt;Atiende&lt;/font&gt;" style="rhombus;whiteSpace=wrap;html=1;fillColor=#0050ef;fontColor=#ffffff;strokeColor=#001DBC;rounded=1;" parent="1" vertex="1">
                    <mxGeometry x="670" y="780" width="100" height="80" as="geometry"/>
                </mxCell>
                <mxCell id="114" value="&lt;font style=&quot;color: light-dark(rgb(0, 0, 0), rgb(255, 255, 255));&quot;&gt;Asigna&lt;/font&gt;" style="rhombus;whiteSpace=wrap;html=1;fillColor=#0050ef;fontColor=#ffffff;strokeColor=#001DBC;rounded=1;" parent="1" vertex="1">
                    <mxGeometry x="749" y="930" width="100" height="80" as="geometry"/>
                </mxCell>
                <mxCell id="115" value="&lt;font style=&quot;color: light-dark(rgb(0, 0, 0), rgb(255, 255, 255));&quot;&gt;Genera&lt;/font&gt;" style="rhombus;whiteSpace=wrap;html=1;fillColor=#0050ef;fontColor=#ffffff;strokeColor=#001DBC;rounded=1;" parent="1" vertex="1">
                    <mxGeometry x="500" y="1010" width="100" height="80" as="geometry"/>
                </mxCell>
                <mxCell id="116" value="&lt;font style=&quot;color: light-dark(rgb(0, 0, 0), rgb(255, 255, 255));&quot;&gt;Receta&lt;/font&gt;" style="rhombus;whiteSpace=wrap;html=1;fillColor=#0050ef;fontColor=#ffffff;strokeColor=#001DBC;rounded=1;" parent="1" vertex="1">
                    <mxGeometry x="650" y="1090" width="100" height="80" as="geometry"/>
                </mxCell>
                <mxCell id="117" value="" style="endArrow=none;html=1;fontColor=#000000;" parent="1" source="112" target="28" edge="1">
                    <mxGeometry width="50" height="50" relative="1" as="geometry">
                        <mxPoint x="700" y="970" as="sourcePoint"/>
                        <mxPoint x="700" y="830" as="targetPoint"/>
                    </mxGeometry>
                </mxCell>
                <mxCell id="118" value="" style="endArrow=ERzeroToMany;html=1;endFill=0;" parent="1" source="112" target="81" edge="1">
                    <mxGeometry width="50" height="50" relative="1" as="geometry">
                        <mxPoint x="610" y="850" as="sourcePoint"/>
                        <mxPoint x="560" y="890" as="targetPoint"/>
                    </mxGeometry>
                </mxCell>
                <mxCell id="119" value="" style="endArrow=none;html=1;fontColor=#000000;" parent="1" source="113" target="43" edge="1">
                    <mxGeometry width="50" height="50" relative="1" as="geometry">
                        <mxPoint x="665" y="630" as="sourcePoint"/>
                        <mxPoint x="640" y="450" as="targetPoint"/>
                    </mxGeometry>
                </mxCell>
                <mxCell id="120" value="" style="endArrow=ERzeroToMany;html=1;endFill=0;" parent="1" source="113" target="81" edge="1">
                    <mxGeometry width="50" height="50" relative="1" as="geometry">
                        <mxPoint x="800" y="750" as="sourcePoint"/>
                        <mxPoint x="850" y="700" as="targetPoint"/>
                    </mxGeometry>
                </mxCell>
                <mxCell id="121" value="" style="endArrow=ERmandOne;html=1;fontColor=#000000;entryX=0;entryY=1;entryDx=0;entryDy=0;endFill=0;" parent="1" source="115" target="81" edge="1">
                    <mxGeometry width="50" height="50" relative="1" as="geometry">
                        <mxPoint x="690" y="1230" as="sourcePoint"/>
                        <mxPoint x="665" y="1050" as="targetPoint"/>
                    </mxGeometry>
                </mxCell>
                <mxCell id="122" value="" style="endArrow=ERmandOne;html=1;entryX=1;entryY=0.5;entryDx=0;entryDy=0;endFill=0;" parent="1" source="115" target="88" edge="1">
                    <mxGeometry width="50" height="50" relative="1" as="geometry">
                        <mxPoint x="680" y="1110" as="sourcePoint"/>
                        <mxPoint x="730" y="1060" as="targetPoint"/>
                    </mxGeometry>
                </mxCell>
                <mxCell id="123" value="" style="endArrow=none;html=1;endFill=0;startArrow=ERzeroToOne;startFill=0;" parent="1" source="81" target="114" edge="1">
                    <mxGeometry width="50" height="50" relative="1" as="geometry">
                        <mxPoint x="680" y="910" as="sourcePoint"/>
                        <mxPoint x="730" y="860" as="targetPoint"/>
                    </mxGeometry>
                </mxCell>
                <mxCell id="124" value="" style="endArrow=ERzeroToOne;html=1;endFill=0;" parent="1" source="114" target="68" edge="1">
                    <mxGeometry width="50" height="50" relative="1" as="geometry">
                        <mxPoint x="680" y="910" as="sourcePoint"/>
                        <mxPoint x="730" y="860" as="targetPoint"/>
                    </mxGeometry>
                </mxCell>
                <mxCell id="125" value="" style="endArrow=none;html=1;startArrow=ERoneToMany;startFill=0;" parent="1" source="81" target="116" edge="1">
                    <mxGeometry width="50" height="50" relative="1" as="geometry">
                        <mxPoint x="780" y="1010" as="sourcePoint"/>
                        <mxPoint x="830" y="960" as="targetPoint"/>
                    </mxGeometry>
                </mxCell>
                <mxCell id="126" value="" style="endArrow=ERzeroToOne;html=1;endFill=0;" parent="1" source="116" target="103" edge="1">
                    <mxGeometry width="50" height="50" relative="1" as="geometry">
                        <mxPoint x="780" y="1010" as="sourcePoint"/>
                        <mxPoint x="830" y="960" as="targetPoint"/>
                    </mxGeometry>
                </mxCell>
            </root>
        </mxGraphModel>
    </diagram>
</mxfile>